<?xml version="1.0" encoding="UTF-8"?>
<svg width="30px" height="30px" viewBox="0 0 30 30" version="1.1" xmlns="http://www.w3.org/2000/svg" xmlns:xlink="http://www.w3.org/1999/xlink">
    <title>椭圆形</title>
    <g id="页面-1" stroke="none" stroke-width="1" fill="none" fill-rule="evenodd">
        <g id="web版/短视频/横版" transform="translate(-1103.000000, -357.000000)">
            <g id="编组-3" transform="translate(1103.000000, 357.000000)">
                <g id="编组-3备份-2" transform="translate(15.000000, 15.000000) scale(1, -1) translate(-15.000000, -15.000000) " fill="#000000" opacity="0.295456659">
                    <circle id="椭圆形" cx="15" cy="15" r="15"></circle>
                </g>
                <path d="M19.0660577,10.6272784 L24.0651333,18.2741383 C24.6695409,19.1986734 24.4100264,20.4381265 23.4854913,21.0425341 C23.1601292,21.2552371 22.7798341,21.3685152 22.3911144,21.3685152 L12.3929633,21.3685152 C11.2883938,21.3685152 10.3929633,20.4730847 10.3929633,19.3685152 C10.3929633,18.9797955 10.5062415,18.5995004 10.7189444,18.2741383 L15.71802,10.6272784 C16.3224276,9.70274331 17.5618806,9.44322876 18.4864157,10.0476364 C18.7175782,10.1987571 18.914937,10.3961159 19.0660577,10.6272784 Z" id="三角形备份" fill="#FFFFFF" opacity="0.803945" transform="translate(17.392039, 14.717561) rotate(-270.000000) translate(-17.392039, -14.717561) "></path>
            </g>
        </g>
    </g>
</svg>