<?xml version="1.0" encoding="UTF-8"?>
<svg width="10px" height="10px" viewBox="0 0 10 10" version="1.1" xmlns="http://www.w3.org/2000/svg" xmlns:xlink="http://www.w3.org/1999/xlink">
    <title>编组</title>
    <defs>
        <linearGradient x1="126.848523%" y1="50%" x2="-2.57294186e-12%" y2="50%" id="linearGradient-1">
            <stop stop-color="#4376F3" offset="0%"></stop>
            <stop stop-color="#608BF5" stop-opacity="0.809394413" offset="67.6426026%"></stop>
            <stop stop-color="#316DFF" stop-opacity="0" offset="100%"></stop>
        </linearGradient>
    </defs>
    <g id="页面-1" stroke="none" stroke-width="1" fill="none" fill-rule="evenodd">
        <g id="web版/短视频/竖版" transform="translate(-1249.000000, -726.000000)">
            <g id="编组-10备份" transform="translate(1056.000000, 655.000000)">
                <g id="编组-5" transform="translate(132.000000, 65.000000)">
                    <text id="查看详情" font-family="PingFangSC-Regular, PingFang SC" font-size="14" font-weight="normal" line-spacing="21" fill="#7A9BFF">
                        <tspan x="0" y="15">查看详情</tspan>
                    </text>
                    <g id="编组" transform="translate(61.000000, 6.000000)" fill="url(#linearGradient-1)" fill-rule="nonzero">
                        <path d="M0.666914894,0 C0.85106383,0 1.00712766,0.0604 1.13606383,0.1792 L5.80191489,4.5552 C5.9343617,4.678 6,4.828 6,4.999 C6,5.172 5.93425532,5.322 5.80180851,5.4449 L1.13585106,9.8187 C1.00723404,9.9396 0.851276596,10 0.666914894,10 C0.482978723,10 0.325851064,9.9396 0.195851064,9.8166 C0.065531915,9.6958 0.000425532117,9.5478 0,9.375 C0,9.1978 0.0640425531,9.0499 0.192234043,8.9311 L4.385,4.9991 L0.192234043,1.0691 C0.0640425533,0.948 0,0.8002 0,0.623 C0,0.4438 0.0628723405,0.296 0.19,0.1771 C0.316914894,0.0582999999 0.475531915,0 0.666489362,0 L0.666914894,0 Z M4.66680851,0 C4.85085106,0 5.00702128,0.0604 5.13595745,0.1792 L9.80180851,4.5552 C9.93404255,4.678 10,4.828 10,4.999 C10,5.172 9.93404255,5.322 9.80180851,5.4449 L5.13585106,9.8187 C5.00702128,9.9396 4.85074468,10 4.66670213,10 C4.48276596,10 4.32542553,9.9396 4.1956383,9.8166 C4.06521277,9.6958 4.00031915,9.5478 3.99989362,9.3749 C3.99989362,9.1977 4.06382979,9.0498 4.19212766,8.931 L8.38489362,4.999 L4.19212766,1.069 C4.06382979,0.948 3.99989362,0.8002 3.99989362,0.623 C3.99989362,0.4438 4.06265957,0.2959 4.18989362,0.1771 C4.31680851,0.0582999999 4.47542553,0 4.6662766,0 L4.66680851,0 Z" id="形状"></path>
                    </g>
                </g>
            </g>
        </g>
    </g>
</svg>